<svg version="1.2" xmlns="http://www.w3.org/2000/svg" viewBox="0 0 139 139" width="139" height="139"><defs><linearGradient id="P" gradientUnits="userSpaceOnUse"/><linearGradient id="g1" x2="1" href="#P" gradientTransform="matrix(100,0,0,71.429,28,119)"><stop stop-color="#6366f1"/><stop offset="1" stop-color="#22d3ee"/></linearGradient></defs><style>.a{fill:none;stroke:url(#g1);stroke-linecap:round;stroke-width:10}.b{opacity:.9;fill:none;stroke:#6366f1;stroke-linecap:round;stroke-width:10}.c{fill:#fff;stroke:#0f172a;stroke-linejoin:round;stroke-width:10}.d{fill:#fff;stroke:#0f172a;stroke-width:10}.e{fill:#6366f1}.f{fill:#0f172a}</style><path fill-rule="evenodd" class="a" d="m38 116h66c10 0 18-8 18-18v-42"/><path fill-rule="evenodd" class="b" d="m30 102h66c10 0 18-8 18-18v-42"/><path class="c" d="m18 50c0-8 6-14 14-14h14l8-10h32l8 10h12c8 0 14 6 14 14v44c0 8-6 14-14 14h-74c-8 0-14-6-14-14z"/><path fill-rule="evenodd" class="d" d="m69 92c-11.1 0-20-8.9-20-20 0-11.1 8.9-20 20-20 11.1 0 20 8.9 20 20 0 11.1-8.9 20-20 20z"/><path fill-rule="evenodd" class="e" d="m69 81c-5 0-9-4-9-9 0-5 4-9 9-9 5 0 9 4 9 9 0 5-4 9-9 9z"/><path fill-rule="evenodd" class="f" d="m101 61c-2.8 0-5-2.2-5-5 0-2.8 2.2-5 5-5 2.8 0 5 2.2 5 5 0 2.8-2.2 5-5 5z"/></svg>